<svg width="16" height="16" viewBox="0 0 16 16" fill="none" xmlns="http://www.w3.org/2000/svg">
<path d="M7.99984 5.70933C7.69898 5.70933 7.40107 5.76859 7.12311 5.88372C6.84515 5.99885 6.5926 6.16761 6.37986 6.38035C6.16712 6.59309 5.99837 6.84564 5.88323 7.1236C5.7681 7.40156 5.70884 7.69947 5.70884 8.00033C5.70884 8.30119 5.7681 8.5991 5.88323 8.87706C5.99837 9.15501 6.16712 9.40757 6.37986 9.62031C6.5926 9.83305 6.84515 10.0018 7.12311 10.1169C7.40107 10.2321 7.69898 10.2913 7.99984 10.2913C8.60745 10.2913 9.19018 10.05 9.61982 9.62031C10.0495 9.19066 10.2908 8.60794 10.2908 8.00033C10.2908 7.39272 10.0495 6.80999 9.61982 6.38035C9.19018 5.9507 8.60745 5.70933 7.99984 5.70933ZM7.99984 4.18133C8.50662 4.17313 9.00997 4.26586 9.48056 4.45413C9.95115 4.6424 10.3796 4.92243 10.7409 5.27792C11.1021 5.6334 11.3891 6.05723 11.5849 6.52471C11.7808 6.99219 11.8816 7.49398 11.8816 8.00083C11.8816 8.50768 11.7808 9.00946 11.5849 9.47694C11.3891 9.94442 11.1021 10.3683 10.7409 10.7237C10.3796 11.0792 9.95115 11.3593 9.48056 11.5475C9.00997 11.7358 8.50662 11.8285 7.99984 11.8203C6.98671 11.8203 6.01508 11.4179 5.29869 10.7015C4.5823 9.98509 4.17984 9.01346 4.17984 8.00033C4.17984 6.9872 4.5823 6.01557 5.29869 5.29918C6.01508 4.58279 6.98671 4.18133 7.99984 4.18133ZM12.9648 3.99033C12.969 4.11827 12.9474 4.24575 12.9013 4.36517C12.8552 4.48459 12.7855 4.59353 12.6965 4.6855C12.6074 4.77747 12.5008 4.8506 12.3829 4.90055C12.2651 4.95049 12.1384 4.97623 12.0103 4.97623C11.8823 4.97623 11.7556 4.95049 11.6378 4.90055C11.5199 4.8506 11.4133 4.77747 11.3242 4.6855C11.2352 4.59353 11.1655 4.48459 11.1194 4.36517C11.0733 4.24575 11.0517 4.11827 11.0558 3.99033C11.0558 3.73705 11.1565 3.49414 11.3356 3.31504C11.5147 3.13594 11.7576 3.03533 12.0108 3.03533C12.2641 3.03533 12.507 3.13594 12.6861 3.31504C12.8652 3.49414 12.9648 3.73705 12.9648 3.99033ZM7.99984 1.89033C6.10984 1.89033 5.80184 1.89433 4.92284 1.93333C4.32284 1.96233 3.92184 2.04233 3.54884 2.18733C3.21784 2.31533 2.97884 2.46933 2.72384 2.72433C2.48384 2.95533 2.30084 3.23733 2.18584 3.54933C2.04084 3.92333 1.96084 4.32433 1.93284 4.92333C1.89284 5.76633 1.88884 6.06133 1.88884 8.00033C1.88884 9.89033 1.89384 10.1993 1.93284 11.0783C1.96184 11.6763 2.04184 12.0783 2.18584 12.4513C2.31584 12.7833 2.46884 13.0223 2.72284 13.2763C2.97984 13.5323 3.21884 13.6863 3.54784 13.8133C3.92484 13.9593 4.32684 14.0403 4.92284 14.0673C5.76584 14.1073 6.06084 14.1113 7.99984 14.1113C9.88984 14.1113 10.1988 14.1063 11.0778 14.0673C11.6748 14.0393 12.0778 13.9593 12.4508 13.8143C12.7808 13.6853 13.0218 13.5323 13.2758 13.2783C13.5328 13.0203 13.6858 12.7813 13.8128 12.4533C13.9588 12.0763 14.0398 11.6733 14.0668 11.0783C14.1068 10.2353 14.1108 9.94033 14.1108 8.00033C14.1108 6.11033 14.1058 5.80233 14.0668 4.92333C14.0388 4.32533 13.9588 3.92233 13.8128 3.54933C13.6977 3.23765 13.5142 2.95574 13.2758 2.72433C13.045 2.48503 12.7629 2.3011 12.4508 2.18633C12.0768 2.04133 11.6748 1.96133 11.0778 1.93333C10.2348 1.89333 9.93984 1.89033 7.99984 1.89033ZM7.99984 0.361328C10.0758 0.361328 10.3348 0.369328 11.1488 0.407328C11.9628 0.445328 12.5158 0.573328 13.0038 0.762328C13.5078 0.956328 13.9328 1.21933 14.3568 1.64333C14.7458 2.02533 15.0468 2.48733 15.2378 2.99733C15.4268 3.48333 15.5548 4.03733 15.5928 4.85133C15.6288 5.66633 15.6388 5.92533 15.6388 8.00133C15.6388 10.0763 15.6308 10.3353 15.5928 11.1493C15.5548 11.9633 15.4268 12.5163 15.2378 13.0043C15.0468 13.5143 14.7458 13.9763 14.3578 14.3573C13.9757 14.7457 13.5137 15.0463 13.0038 15.2383C12.5168 15.4273 11.9618 15.5553 11.1488 15.5933C10.3348 15.6293 10.0758 15.6393 7.99984 15.6393C5.92484 15.6393 5.66584 15.6313 4.85084 15.5933C4.03784 15.5553 3.48384 15.4273 2.99684 15.2383C2.48675 15.0472 2.02462 14.7469 1.64284 14.3583C1.25456 13.9763 0.954246 13.5143 0.76284 13.0043C0.57284 12.5173 0.44484 11.9623 0.40684 11.1493C0.37084 10.3353 0.36084 10.0763 0.36084 8.00033C0.36084 5.92533 0.36884 5.66633 0.40684 4.85133C0.44484 4.03733 0.57284 3.48433 0.76184 2.99733C0.95384 2.48733 1.25384 2.02533 1.64284 1.64333C2.02471 1.25489 2.48681 0.954561 2.99684 0.763328C3.48384 0.573328 4.03684 0.445328 4.85084 0.407328C5.66584 0.371328 5.92484 0.361328 8.00084 0.361328H7.99984Z" fill="white"/>
</svg>
