<svg width="91" height="86" viewBox="0 0 91 86" fill="none" xmlns="http://www.w3.org/2000/svg">
<path d="M22.9922 55.5005L21.4922 63.0005L25.9922 60.5005L30.4922 57.5005L35.9922 54.5005L42.4922 52.5005L48.9922 51.5005H54.9922L62.4922 53.0005L54.4922 53.5005L46.9922 54.5005L40.4922 57.0005L31.9922 62.0005L24.9922 69.0005L19.4922 74.5005L15.4922 80.5005L13.4922 85.5005H22.4922L25.4922 80.5005L28.9922 74.5005L33.4922 76.0005L39.4922 77.5005L44.9922 78.5005H53.4922L60.4922 77.5005L67.4922 75.5005L75.4922 70.0005L81.4922 64.5005L89.9922 55.5005L90.4922 53.5005L85.4922 49.5005L77.4922 44.5005L69.4922 41.0005L61.9922 38.5005L55.4922 37.5005H46.4922L40.4922 38.5005L32.4922 43.0005L26.4922 49.0005L22.9922 55.5005Z" fill="#0CAD4E" stroke="black" stroke-width="0.1"/>
<path d="M1.48803 38.4896C2.45094 42.2994 5.9922 47.4896 5.9922 47.4896C8.95282 50.5875 11.4808 52.5396 12.4922 53.0005C13.6518 53.4332 14.1023 53.5757 15.4922 53.5005C15.224 53.5382 15.9002 53.5865 15.9922 53.0005V51.5005C15.826 51.0215 15.7139 50.7776 15.4922 50.4892C15.2263 49.8136 15.1169 49.4754 14.9922 49.0005C14.7859 48.0959 14.694 47.642 14.4922 47.0005C13.9692 44.9364 13.0919 42.4632 12.4922 38.5005C12.598 36.3596 12.4108 34.8494 12.483 32.4892C12.8144 27.6149 13.0379 25.3987 14.483 23.4892L14.4955 23.6412C14.7573 26.8341 14.908 28.6715 15.483 32.4892C15.986 35.3324 16.2506 36.9389 16.483 39.9892C16.7917 42.76 17.1881 43.9742 17.983 45.9892C19.2248 48.4816 20.0349 50.0969 20.983 50.4892C21.9311 50.8814 27.9327 41.3814 27.483 41.4892C28.7757 38.708 29.2429 37.3044 29.483 34.9892C30.1338 31.4734 29.9192 29.4892 29.483 25.9892C29.0469 22.4892 28.5429 20.3173 27.483 17.9892C25.6533 13.8995 24.5443 11.8654 22.4922 9.50026C22.4922 9.50026 16.664 0.88121 15.9922 1.00124C15.9922 1.00124 8.88792 7.99859 8.50136 9.49487C6.05606 12.9412 3.4922 18.4896 3.4922 18.4896L1.4922 26.9896C1.4922 26.9896 0.387538 34.1355 1.48803 38.4896Z" fill="#0CAD4E" stroke="black" stroke-width="0.1"/>
</svg>
